<svg width="79" height="30" viewBox="0 0 79 30" fill="none" xmlns="http://www.w3.org/2000/svg">
<g style="mix-blend-mode:darken" filter="url(#filter0_d_1_2)">
<path d="M18.6797 10.776C19.8157 11.224 20.7037 11.864 21.3437 12.696C21.9997 13.528 22.3277 14.456 22.3277 15.48C22.3277 16.488 21.8797 17.44 20.9837 18.336C20.0877 19.216 18.9757 19.92 17.6477 20.448C16.3197 20.976 15.0557 21.24 13.8557 21.24C13.0557 21.24 12.2717 21.2 11.5037 21.12C10.2237 21.04 9.23169 21 8.52769 21H4.71169V19.464L6.96769 17.688V4.536L4.27969 3.864L5.14369 2.136H8.50369C9.95969 2.136 11.3917 2.088 12.7997 1.992C13.8877 1.928 14.6877 1.896 15.1997 1.896C16.4317 1.896 17.5117 2.104 18.4397 2.52C19.3677 2.936 20.0877 3.504 20.5997 4.224C21.1117 4.928 21.3677 5.72 21.3677 6.6C21.3677 7.384 21.1277 8.136 20.6477 8.856C20.1677 9.56 19.5197 10.192 18.7037 10.752L18.6797 10.776ZM16.3757 7.944C16.3757 6.824 16.1197 5.928 15.6077 5.256C15.0957 4.568 14.3357 4.224 13.3277 4.224C12.7517 4.224 12.2157 4.32 11.7197 4.512V10.608H14.1677C15.6397 10.608 16.3757 9.72 16.3757 7.944ZM14.5037 18.72C15.3677 18.72 16.0477 18.496 16.5437 18.048C17.0557 17.6 17.3117 16.984 17.3117 16.2C17.3117 15.16 17.0237 14.304 16.4477 13.632C15.8877 12.96 15.0557 12.592 13.9517 12.528H13.4717H11.6957V18.24C12.5597 18.544 13.5037 18.696 14.5277 18.696L14.5037 18.72ZM32.0927 7.776C33.3087 7.776 34.3967 8.056 35.3567 8.616C36.3167 9.16 37.0607 9.92 37.5887 10.896C38.1327 11.856 38.4047 12.92 38.4047 14.088C38.4047 15.352 37.9887 16.536 37.1567 17.64C36.3247 18.744 35.2767 19.624 34.0127 20.28C32.7647 20.92 31.5567 21.24 30.3887 21.24C29.1887 21.24 28.1087 20.968 27.1487 20.424C26.1887 19.864 25.4367 19.104 24.8927 18.144C24.3647 17.184 24.1007 16.112 24.1007 14.928C24.1007 13.648 24.5167 12.464 25.3487 11.376C26.1807 10.272 27.2207 9.4 28.4687 8.76C29.7167 8.104 30.9247 7.776 32.0927 7.776ZM30.7007 10.776C30.1247 10.776 29.6767 11.032 29.3567 11.544C29.0527 12.04 28.9007 12.784 28.9007 13.776C28.9007 15.072 29.1487 16.144 29.6447 16.992C30.1567 17.824 30.8687 18.24 31.7807 18.24C32.3727 18.24 32.8207 17.984 33.1247 17.472C33.4447 16.96 33.6047 16.208 33.6047 15.216C33.6047 13.92 33.3487 12.856 32.8367 12.024C32.3407 11.192 31.6287 10.776 30.7007 10.776ZM48.9911 7.776C50.2071 7.776 51.2951 8.056 52.2551 8.616C53.2151 9.16 53.9591 9.92 54.4871 10.896C55.0311 11.856 55.3031 12.92 55.3031 14.088C55.3031 15.352 54.8871 16.536 54.0551 17.64C53.2231 18.744 52.1751 19.624 50.9111 20.28C49.6631 20.92 48.4551 21.24 47.2871 21.24C46.0871 21.24 45.0071 20.968 44.0471 20.424C43.0871 19.864 42.3351 19.104 41.7911 18.144C41.2631 17.184 40.9991 16.112 40.9991 14.928C40.9991 13.648 41.4151 12.464 42.2471 11.376C43.0791 10.272 44.1191 9.4 45.3671 8.76C46.6151 8.104 47.8231 7.776 48.9911 7.776ZM47.5991 10.776C47.0231 10.776 46.5751 11.032 46.2551 11.544C45.9511 12.04 45.7991 12.784 45.7991 13.776C45.7991 15.072 46.0471 16.144 46.5431 16.992C47.0551 17.824 47.7671 18.24 48.6791 18.24C49.2711 18.24 49.7191 17.984 50.0231 17.472C50.3431 16.96 50.5031 16.208 50.5031 15.216C50.5031 13.92 50.2471 12.856 49.7351 12.024C49.2391 11.192 48.5271 10.776 47.5991 10.776ZM65.6061 19.248L64.7421 21H56.8701V19.464L59.0061 17.64V5.016L56.8701 3.6V2.064L61.7421 0.0479994H63.4461V18.552L65.6061 19.248ZM73.2861 21H68.0541L64.3341 14.544L68.4381 11.328L65.3421 9.768L66.2061 8.016H73.5021V9.552L68.7261 13.392L71.7261 18.312L74.1501 19.248L73.2861 21Z" fill="black"/>
<path d="M18.6797 10.776L17.9726 10.0689L16.8945 11.1469L18.3128 11.7063L18.6797 10.776ZM21.3437 12.696L20.551 13.3058L20.5584 13.3152L21.3437 12.696ZM20.9837 18.336L21.6844 19.0495L21.6908 19.0431L20.9837 18.336ZM17.6477 20.448L17.2782 19.5188L17.2782 19.5188L17.6477 20.448ZM11.5037 21.12L11.6073 20.1254L11.5867 20.1232L11.5661 20.1219L11.5037 21.12ZM4.71169 21H3.71169V22H4.71169V21ZM4.71169 19.464L4.09313 18.6783L3.71169 18.9785V19.464H4.71169ZM6.96769 17.688L7.58625 18.4737L7.96769 18.1735V17.688H6.96769ZM6.96769 4.536H7.96769V3.75522L7.21022 3.56586L6.96769 4.536ZM4.27969 3.864L3.38526 3.41679L2.82776 4.53179L4.03715 4.83414L4.27969 3.864ZM5.14369 2.136V1.136H4.52565L4.24926 1.68879L5.14369 2.136ZM12.7997 1.992L12.741 0.993681L12.7317 0.994315L12.7997 1.992ZM18.4397 2.52L18.0306 3.43251L18.0306 3.43251L18.4397 2.52ZM20.5997 4.224L19.7847 4.80356L19.791 4.81217L20.5997 4.224ZM20.6477 8.856L21.474 9.41937L21.4797 9.4107L20.6477 8.856ZM18.7037 10.752L18.1378 9.92749L18.0618 9.97967L17.9966 10.0449L18.7037 10.752ZM15.6077 5.256L14.8054 5.85305L14.8123 5.86204L15.6077 5.256ZM11.7197 4.512L11.3587 3.57943L10.7197 3.82679V4.512H11.7197ZM11.7197 10.608H10.7197V11.608H11.7197V10.608ZM14.5037 18.72L13.7966 18.0129L12.0895 19.72H14.5037V18.72ZM16.5437 18.048L15.8852 17.2954L15.8793 17.3006L15.8734 17.3059L16.5437 18.048ZM16.4477 13.632L15.6794 14.2722L15.6884 14.2828L16.4477 13.632ZM13.9517 12.528L14.0096 11.5297L13.9806 11.528H13.9517V12.528ZM11.6957 12.528V11.528H10.6957V12.528H11.6957ZM11.6957 18.24H10.6957V18.9482L11.3638 19.1833L11.6957 18.24ZM14.5277 18.696L15.2348 19.4031L16.9419 17.696H14.5277V18.696ZM18.3128 11.7063C19.3084 12.0989 20.0383 12.6391 20.5511 13.3057L22.1363 12.0863C21.3691 11.0889 20.323 10.3491 19.0466 9.84573L18.3128 11.7063ZM20.5584 13.3152C21.0805 13.9774 21.3277 14.6889 21.3277 15.48H23.3277C23.3277 14.2231 22.9188 13.0786 22.129 12.0768L20.5584 13.3152ZM21.3277 15.48C21.3277 16.1586 21.0359 16.8696 20.2766 17.6289L21.6908 19.0431C22.7235 18.0104 23.3277 16.8174 23.3277 15.48H21.3277ZM20.283 17.6226C19.4942 18.3973 18.4995 19.0332 17.2782 19.5188L18.0171 21.3772C19.4519 20.8068 20.6812 20.0347 21.6844 19.0494L20.283 17.6226ZM17.2782 19.5188C16.0458 20.0087 14.9075 20.24 13.8557 20.24V22.24C15.2039 22.24 16.5935 21.9433 18.0171 21.3772L17.2782 19.5188ZM13.8557 20.24C13.0891 20.24 12.3397 20.2017 11.6073 20.1254L11.4001 22.1146C12.2037 22.1983 13.0223 22.24 13.8557 22.24V20.24ZM11.5661 20.1219C10.2792 20.0415 9.26286 20 8.52769 20V22C9.20052 22 10.1682 22.0385 11.4413 22.1181L11.5661 20.1219ZM8.52769 20H4.71169V22H8.52769V20ZM5.71169 21V19.464H3.71169V21H5.71169ZM5.33025 20.2497L7.58625 18.4737L6.34913 16.9023L4.09313 18.6783L5.33025 20.2497ZM7.96769 17.688V4.536H5.96769V17.688H7.96769ZM7.21022 3.56586L4.52222 2.89386L4.03715 4.83414L6.72515 5.50614L7.21022 3.56586ZM5.17411 4.31121L6.03811 2.58321L4.24926 1.68879L3.38526 3.41679L5.17411 4.31121ZM5.14369 3.136H8.50369V1.136H5.14369V3.136ZM8.50369 3.136C9.98167 3.136 11.4364 3.08727 12.8677 2.98968L12.7317 0.994315C11.347 1.08872 9.93771 1.136 8.50369 1.136V3.136ZM12.8584 2.99027C13.9435 2.92644 14.7189 2.896 15.1997 2.896V0.895998C14.6565 0.895998 13.8319 0.929554 12.741 0.993724L12.8584 2.99027ZM15.1997 2.896C16.3199 2.896 17.2555 3.08504 18.0306 3.43251L18.8487 1.60749C17.7679 1.12296 16.5435 0.895998 15.1997 0.895998V2.896ZM18.0306 3.43251C18.821 3.78682 19.3907 4.24945 19.7847 4.80352L21.4146 3.64447C20.7847 2.75855 19.9143 2.08518 18.8487 1.60749L18.0306 3.43251ZM19.791 4.81217C20.1772 5.34325 20.3677 5.92886 20.3677 6.6H22.3677C22.3677 5.51114 22.0462 4.51274 21.4084 3.63583L19.791 4.81217ZM20.3677 6.6C20.3677 7.16629 20.1979 7.72784 19.8156 8.3013L21.4797 9.4107C22.0574 8.54416 22.3677 7.60171 22.3677 6.6H20.3677ZM19.8215 8.29266C19.4216 8.87909 18.8679 9.42649 18.1378 9.92749L19.2695 11.5765C20.1715 10.9575 20.9138 10.2409 21.4739 9.41934L19.8215 8.29266ZM17.9966 10.0449L17.9726 10.0689L19.3868 11.4831L19.4108 11.4591L17.9966 10.0449ZM17.3757 7.944C17.3757 6.67614 17.0853 5.54528 16.4031 4.64996L14.8123 5.86204C15.1541 6.31071 15.3757 6.97186 15.3757 7.944H17.3757ZM16.4099 4.65899C15.6746 3.67094 14.589 3.224 13.3277 3.224V5.224C14.0824 5.224 14.5167 5.46505 14.8055 5.85301L16.4099 4.65899ZM13.3277 3.224C12.6385 3.224 11.9791 3.33929 11.3587 3.57943L12.0807 5.44457C12.4523 5.30071 12.8649 5.224 13.3277 5.224V3.224ZM10.7197 4.512V10.608H12.7197V4.512H10.7197ZM11.7197 11.608H14.1677V9.608H11.7197V11.608ZM14.1677 11.608C15.1124 11.608 15.9853 11.314 16.5936 10.5801C17.1721 9.88219 17.3757 8.94523 17.3757 7.944H15.3757C15.3757 8.71877 15.2113 9.11381 15.0538 9.30386C14.926 9.45797 14.695 9.608 14.1677 9.608V11.608ZM14.5037 19.72C15.5408 19.72 16.4855 19.4481 17.214 18.7901L15.8734 17.3059C15.6099 17.5439 15.1946 17.72 14.5037 17.72V19.72ZM17.2022 18.8006C17.9653 18.1328 18.3117 17.2237 18.3117 16.2H16.3117C16.3117 16.7443 16.146 17.0672 15.8852 17.2954L17.2022 18.8006ZM18.3117 16.2C18.3117 14.9653 17.9647 13.8653 17.2069 12.9812L15.6884 14.2828C16.0827 14.7427 16.3117 15.3547 16.3117 16.2H18.3117ZM17.2159 12.9918C16.4346 12.0542 15.3121 11.6052 14.0096 11.5297L13.8938 13.5263C14.7993 13.5788 15.3408 13.8658 15.6795 14.2722L17.2159 12.9918ZM13.9517 11.528H13.4717V13.528H13.9517V11.528ZM13.4717 11.528H11.6957V13.528H13.4717V11.528ZM10.6957 12.528V18.24H12.6957V12.528H10.6957ZM11.3638 19.1833C12.3462 19.529 13.4039 19.696 14.5277 19.696V17.696C13.6035 17.696 12.7732 17.559 12.0276 17.2967L11.3638 19.1833ZM13.8206 17.9889L13.7966 18.0129L15.2108 19.4271L15.2348 19.4031L13.8206 17.9889ZM35.3567 8.616L34.8528 9.47985L34.8637 9.48602L35.3567 8.616ZM37.5887 10.896L36.7091 11.3718L36.7138 11.3805L36.7187 11.389L37.5887 10.896ZM37.1567 17.64L37.9553 18.2419L37.9553 18.2419L37.1567 17.64ZM34.0127 20.28L34.469 21.1698L34.4733 21.1676L34.0127 20.28ZM27.1487 20.424L26.6448 21.2878L26.6557 21.294L27.1487 20.424ZM24.8927 18.144L24.0164 18.626L24.0227 18.637L24.8927 18.144ZM25.3487 11.376L26.1431 11.9835L26.1473 11.9778L25.3487 11.376ZM28.4687 8.76L28.925 9.64986L28.934 9.64516L28.4687 8.76ZM29.3567 11.544L28.5087 11.014L28.5041 11.0214L29.3567 11.544ZM29.6447 16.992L28.7815 17.4969L28.7872 17.5066L28.793 17.5161L29.6447 16.992ZM33.1247 17.472L32.2767 16.942L32.2707 16.9517L32.2648 16.9615L33.1247 17.472ZM32.8367 12.024L31.9777 12.5361L31.985 12.5481L32.8367 12.024ZM32.0927 8.776C33.1488 8.776 34.0599 9.01726 34.8528 9.47978L35.8606 7.75222C34.7335 7.09474 33.4686 6.776 32.0927 6.776V8.776ZM34.8637 9.48602C35.6594 9.93694 36.2699 10.5599 36.7091 11.3718L38.4682 10.4202C37.8515 9.2801 36.974 8.38306 35.8497 7.74598L34.8637 9.48602ZM36.7187 11.389C37.1724 12.1898 37.4047 13.0823 37.4047 14.088H39.4047C39.4047 12.7577 39.0929 11.5222 38.4587 10.403L36.7187 11.389ZM37.4047 14.088C37.4047 15.1143 37.0723 16.0904 36.3581 17.0381L37.9553 18.2419C38.905 16.9816 39.4047 15.5897 39.4047 14.088H37.4047ZM36.3581 17.0381C35.6187 18.0192 34.6876 18.8031 33.552 19.3924L34.4733 21.1676C35.8658 20.4449 37.0306 19.4688 37.9553 18.2419L36.3581 17.0381ZM33.5564 19.3902C32.4215 19.9722 31.3692 20.24 30.3887 20.24V22.24C31.7442 22.24 33.1079 21.8678 34.469 21.1698L33.5564 19.3902ZM30.3887 20.24C29.3459 20.24 28.4384 20.0054 27.6417 19.554L26.6557 21.294C27.779 21.9306 29.0314 22.24 30.3887 22.24V20.24ZM27.6526 19.5602C26.8441 19.0886 26.2189 18.456 25.7627 17.651L24.0227 18.637C24.6545 19.752 25.5333 20.6394 26.6448 21.2878L27.6526 19.5602ZM25.7689 17.6621C25.3286 16.8615 25.1007 15.9575 25.1007 14.928H23.1007C23.1007 16.2665 23.4008 17.5065 24.0165 18.6259L25.7689 17.6621ZM25.1007 14.928C25.1007 13.8834 25.4345 12.9101 26.143 11.9834L24.5543 10.7685C23.5989 12.0179 23.1007 13.4126 23.1007 14.928H25.1007ZM26.1473 11.9778C26.887 10.9963 27.8094 10.2219 28.925 9.64982L28.0124 7.87018C26.632 8.57805 25.4743 9.54774 24.5501 10.7741L26.1473 11.9778ZM28.934 9.64516C30.0679 9.0491 31.1171 8.776 32.0927 8.776V6.776C30.7323 6.776 29.3654 7.1589 28.0034 7.87483L28.934 9.64516ZM30.7007 9.776C29.7602 9.776 29.0008 10.2267 28.5087 11.014L30.2047 12.074C30.3526 11.8373 30.4891 11.776 30.7007 11.776V9.776ZM28.5041 11.0214C28.0575 11.75 27.9007 12.7144 27.9007 13.776H29.9007C29.9007 12.8536 30.0479 12.33 30.2093 12.0666L28.5041 11.0214ZM27.9007 13.776C27.9007 15.1944 28.1717 16.4543 28.7815 17.4969L30.5079 16.4871C30.1257 15.8337 29.9007 14.9496 29.9007 13.776H27.9007ZM28.793 17.5161C29.4714 18.6184 30.4926 19.24 31.7807 19.24V17.24C31.2448 17.24 30.842 17.0296 30.4963 16.4679L28.793 17.5161ZM31.7807 19.24C32.7281 19.24 33.5017 18.7958 33.9845 17.9825L32.2648 16.9615C32.1397 17.1722 32.0172 17.24 31.7807 17.24V19.24ZM33.9727 18.002C34.437 17.2591 34.6047 16.2871 34.6047 15.216H32.6047C32.6047 16.1289 32.4524 16.6609 32.2767 16.942L33.9727 18.002ZM34.6047 15.216C34.6047 13.7938 34.3241 12.5331 33.6883 11.4999L31.985 12.5481C32.3732 13.1789 32.6047 14.0462 32.6047 15.216H34.6047ZM33.6956 11.5119C33.0289 10.3935 31.9994 9.776 30.7007 9.776V11.776C31.258 11.776 31.6525 11.9904 31.9777 12.5361L33.6956 11.5119ZM52.2551 8.616L51.7512 9.47985L51.7621 9.48602L52.2551 8.616ZM54.4871 10.896L53.6076 11.3718L53.6123 11.3805L53.6171 11.389L54.4871 10.896ZM54.0551 17.64L54.8537 18.2419L54.8537 18.2419L54.0551 17.64ZM50.9111 20.28L51.3674 21.1698L51.3718 21.1676L50.9111 20.28ZM44.0471 20.424L43.5432 21.2878L43.5541 21.294L44.0471 20.424ZM41.7911 18.144L40.9148 18.626L40.9211 18.637L41.7911 18.144ZM42.2471 11.376L43.0415 11.9835L43.0457 11.9778L42.2471 11.376ZM45.3671 8.76L45.8235 9.64986L45.8324 9.64516L45.3671 8.76ZM46.2551 11.544L45.4071 11.014L45.4025 11.0214L46.2551 11.544ZM46.5431 16.992L45.6799 17.4969L45.6856 17.5066L45.6915 17.5161L46.5431 16.992ZM50.0231 17.472L49.1751 16.942L49.1691 16.9517L49.1633 16.9615L50.0231 17.472ZM49.7351 12.024L48.8761 12.5361L48.8835 12.5481L49.7351 12.024ZM48.9911 8.776C50.0472 8.776 50.9584 9.01726 51.7513 9.47978L52.759 7.75222C51.6319 7.09474 50.367 6.776 48.9911 6.776V8.776ZM51.7621 9.48602C52.5579 9.93694 53.1683 10.5599 53.6076 11.3718L55.3667 10.4202C54.7499 9.2801 53.8724 8.38306 52.7481 7.74598L51.7621 9.48602ZM53.6171 11.389C54.0709 12.1898 54.3031 13.0823 54.3031 14.088H56.3031C56.3031 12.7577 55.9914 11.5222 55.3571 10.403L53.6171 11.389ZM54.3031 14.088C54.3031 15.1143 53.9708 16.0904 53.2565 17.0381L54.8537 18.2419C55.8035 16.9816 56.3031 15.5897 56.3031 14.088H54.3031ZM53.2565 17.0381C52.5172 18.0192 51.586 18.8031 50.4505 19.3924L51.3718 21.1676C52.7642 20.4449 53.9291 19.4688 54.8537 18.2419L53.2565 17.0381ZM50.4548 19.3902C49.3199 19.9722 48.2676 20.24 47.2871 20.24V22.24C48.6427 22.24 50.0063 21.8678 51.3674 21.1698L50.4548 19.3902ZM47.2871 20.24C46.2444 20.24 45.3368 20.0054 44.5401 19.554L43.5541 21.294C44.6774 21.9306 45.9299 22.24 47.2871 22.24V20.24ZM44.551 19.5602C43.7425 19.0886 43.1173 18.456 42.6611 17.651L40.9211 18.637C41.5529 19.752 42.4317 20.6394 43.5433 21.2878L44.551 19.5602ZM42.6673 17.6621C42.227 16.8615 41.9991 15.9575 41.9991 14.928H39.9991C39.9991 16.2665 40.2992 17.5065 40.9149 18.6259L42.6673 17.6621ZM41.9991 14.928C41.9991 13.8834 42.3329 12.9101 43.0415 11.9834L41.4528 10.7685C40.4974 12.0179 39.9991 13.4126 39.9991 14.928H41.9991ZM43.0457 11.9778C43.7855 10.9963 44.7078 10.2219 45.8234 9.64982L44.9108 7.87018C43.5305 8.57805 42.3728 9.54774 41.4485 10.7741L43.0457 11.9778ZM45.8324 9.64516C46.9664 9.0491 48.0155 8.776 48.9911 8.776V6.776C47.6307 6.776 46.2639 7.1589 44.9018 7.87483L45.8324 9.64516ZM47.5991 9.776C46.6587 9.776 45.8992 10.2267 45.4071 11.014L47.1031 12.074C47.2511 11.8373 47.3876 11.776 47.5991 11.776V9.776ZM45.4025 11.0214C44.956 11.75 44.7991 12.7144 44.7991 13.776H46.7991C46.7991 12.8536 46.9463 12.33 47.1077 12.0666L45.4025 11.0214ZM44.7991 13.776C44.7991 15.1944 45.0701 16.4543 45.6799 17.4969L47.4063 16.4871C47.0241 15.8337 46.7991 14.9496 46.7991 13.776H44.7991ZM45.6915 17.5161C46.3698 18.6184 47.391 19.24 48.6791 19.24V17.24C48.1432 17.24 47.7404 17.0296 47.3948 16.4679L45.6915 17.5161ZM48.6791 19.24C49.6266 19.24 50.4001 18.7958 50.883 17.9825L49.1633 16.9615C49.0381 17.1722 48.9157 17.24 48.6791 17.24V19.24ZM50.8711 18.002C51.3354 17.2591 51.5031 16.2871 51.5031 15.216H49.5031C49.5031 16.1289 49.3508 16.6609 49.1751 16.942L50.8711 18.002ZM51.5031 15.216C51.5031 13.7938 51.2226 12.5331 50.5868 11.4999L48.8835 12.5481C49.2717 13.1789 49.5031 14.0462 49.5031 15.216H51.5031ZM50.5941 11.5119C49.9273 10.3935 48.8979 9.776 47.5991 9.776V11.776C48.1564 11.776 48.5509 11.9904 48.8762 12.5361L50.5941 11.5119ZM65.6061 19.248L66.5029 19.6903L67.0152 18.6514L65.9128 18.2962L65.6061 19.248ZM64.7421 21V22H65.3639L65.6389 21.4423L64.7421 21ZM56.8701 21H55.8701V22H56.8701V21ZM56.8701 19.464L56.2207 18.7035L55.8701 19.0029V19.464H56.8701ZM59.0061 17.64L59.6554 18.4005L60.0061 18.1011V17.64H59.0061ZM59.0061 5.016H60.0061V4.47914L59.5586 4.18251L59.0061 5.016ZM56.8701 3.6H55.8701V4.13685L56.3175 4.43349L56.8701 3.6ZM56.8701 2.064L56.4877 1.13998L55.8701 1.39556V2.064H56.8701ZM61.7421 0.0479994V-0.952001H61.5433L61.3597 -0.876017L61.7421 0.0479994ZM63.4461 0.0479994H64.4461V-0.952001H63.4461V0.0479994ZM63.4461 18.552H62.4461V19.2804L63.1394 19.5038L63.4461 18.552ZM73.2861 21V22H73.9079L74.1829 21.4423L73.2861 21ZM68.0541 21L67.1876 21.4993L67.4761 22H68.0541V21ZM64.3341 14.544L63.7173 13.7569L63.0346 14.2918L63.4676 15.0433L64.3341 14.544ZM68.4381 11.328L69.0549 12.1151L70.2946 11.1437L68.888 10.435L68.4381 11.328ZM65.3421 9.768L64.4452 9.32571L64.0067 10.2149L64.8921 10.661L65.3421 9.768ZM66.2061 8.016V7.016H65.5842L65.3092 7.57371L66.2061 8.016ZM73.5021 8.016H74.5021V7.016H73.5021V8.016ZM73.5021 9.552L74.1287 10.3313L74.5021 10.0311V9.552H73.5021ZM68.7261 13.392L68.0995 12.6127L67.4151 13.1629L67.8723 13.9126L68.7261 13.392ZM71.7261 18.312L70.8723 18.8326L71.0491 19.1225L71.3658 19.2449L71.7261 18.312ZM74.1501 19.248L75.0469 19.6903L75.5308 18.7092L74.5103 18.3151L74.1501 19.248ZM64.7092 18.8057L63.8452 20.5577L65.6389 21.4423L66.5029 19.6903L64.7092 18.8057ZM64.7421 20H56.8701V22H64.7421V20ZM57.8701 21V19.464H55.8701V21H57.8701ZM57.5194 20.2245L59.6554 18.4005L58.3567 16.8795L56.2207 18.7035L57.5194 20.2245ZM60.0061 17.64V5.016H58.0061V17.64H60.0061ZM59.5586 4.18251L57.4226 2.76651L56.3175 4.43349L58.4535 5.84949L59.5586 4.18251ZM57.8701 3.6V2.064H55.8701V3.6H57.8701ZM57.2524 2.98802L62.1244 0.972016L61.3597 -0.876017L56.4877 1.13998L57.2524 2.98802ZM61.7421 1.048H63.4461V-0.952001H61.7421V1.048ZM62.4461 0.0479994V18.552H64.4461V0.0479994H62.4461ZM63.1394 19.5038L65.2994 20.1998L65.9128 18.2962L63.7528 17.6002L63.1394 19.5038ZM73.2861 20H68.0541V22H73.2861V20ZM68.9205 20.5007L65.2005 14.0447L63.4676 15.0433L67.1876 21.4993L68.9205 20.5007ZM64.9509 15.3311L69.0549 12.1151L67.8213 10.5409L63.7173 13.7569L64.9509 15.3311ZM68.888 10.435L65.792 8.87496L64.8921 10.661L67.9881 12.221L68.888 10.435ZM66.2389 10.2103L67.1029 8.45829L65.3092 7.57371L64.4452 9.32571L66.2389 10.2103ZM66.2061 9.016H73.5021V7.016H66.2061V9.016ZM72.5021 8.016V9.552H74.5021V8.016H72.5021ZM72.8755 8.77266L68.0995 12.6127L69.3527 14.1713L74.1287 10.3313L72.8755 8.77266ZM67.8723 13.9126L70.8723 18.8326L72.5799 17.7914L69.5799 12.8714L67.8723 13.9126ZM71.3658 19.2449L73.7898 20.1809L74.5103 18.3151L72.0863 17.3791L71.3658 19.2449ZM73.2532 18.8057L72.3892 20.5577L74.1829 21.4423L75.0469 19.6903L73.2532 18.8057Z" fill="black"/>
</g>
<defs>
<filter id="filter0_d_1_2" x="0.279686" y="0.0480003" width="77.8704" height="29.192" filterUnits="userSpaceOnUse" color-interpolation-filters="sRGB">
<feFlood flood-opacity="0" result="BackgroundImageFix"/>
<feColorMatrix in="SourceAlpha" type="matrix" values="0 0 0 0 0 0 0 0 0 0 0 0 0 0 0 0 0 0 127 0" result="hardAlpha"/>
<feOffset dy="4"/>
<feGaussianBlur stdDeviation="2"/>
<feComposite in2="hardAlpha" operator="out"/>
<feColorMatrix type="matrix" values="0 0 0 0 0 0 0 0 0 0 0 0 0 0 0 0 0 0 0.25 0"/>
<feBlend mode="normal" in2="BackgroundImageFix" result="effect1_dropShadow_1_2"/>
<feBlend mode="normal" in="SourceGraphic" in2="effect1_dropShadow_1_2" result="shape"/>
</filter>
</defs>
</svg>
